<svg width="26" height="18" viewBox="0 0 26 18" fill="none" xmlns="http://www.w3.org/2000/svg">
<path d="M0.109375 16.2832V1.61523C0.109375 1.33529 0.19401 1.11068 0.363281 0.941406C0.539062 0.765625 0.770182 0.677734 1.05664 0.677734H24.9434C25.2298 0.677734 25.4577 0.765625 25.627 0.941406C25.7962 1.11068 25.8809 1.33529 25.8809 1.61523V16.2832C25.8809 16.5697 25.7962 16.7975 25.627 16.9668C25.4577 17.1426 25.2298 17.2305 24.9434 17.2305H1.05664C0.770182 17.2305 0.539062 17.1426 0.363281 16.9668C0.19401 16.7975 0.109375 16.5697 0.109375 16.2832ZM2.57031 14.3105C2.57031 14.6165 2.7168 14.7695 3.00977 14.7695H22.9805C23.2799 14.7695 23.4297 14.6165 23.4297 14.3105V3.59766C23.4297 3.29167 23.2799 3.13867 22.9805 3.13867H3.00977C2.7168 3.13867 2.57031 3.29167 2.57031 3.59766V14.3105ZM3.74219 13.3926V4.51562C3.74219 4.38542 3.80729 4.32031 3.9375 4.32031H10.666C10.2559 4.80859 9.93685 5.44661 9.70898 6.23438C9.48112 7.02214 9.36719 7.92383 9.36719 8.93945C9.36719 9.95508 9.48112 10.86 9.70898 11.6543C9.94336 12.4486 10.2689 13.0931 10.6855 13.5879H3.9375C3.80729 13.5879 3.74219 13.5228 3.74219 13.3926ZM10.7246 8.93945C10.7246 8.03451 10.819 7.25651 11.0078 6.60547C11.1966 5.95443 11.4603 5.45638 11.7988 5.11133C12.1374 4.75977 12.5247 4.58398 12.9609 4.58398C13.4167 4.58398 13.8203 4.75977 14.1719 5.11133C14.5234 5.45638 14.7969 5.95443 14.9922 6.60547C15.194 7.25651 15.2949 8.03451 15.2949 8.93945C15.2949 9.8444 15.194 10.6257 14.9922 11.2832C14.7969 11.9342 14.5234 12.4355 14.1719 12.7871C13.8203 13.1387 13.4167 13.3145 12.9609 13.3145C12.5247 13.3145 12.1374 13.1387 11.7988 12.7871C11.4603 12.4355 11.1966 11.9342 11.0078 11.2832C10.819 10.6257 10.7246 9.8444 10.7246 8.93945ZM15.2949 13.5879C15.7181 13.0931 16.0469 12.4486 16.2812 11.6543C16.5221 10.86 16.6426 9.95508 16.6426 8.93945C16.6426 7.92383 16.5254 7.02214 16.291 6.23438C16.0566 5.44661 15.7279 4.80859 15.3047 4.32031H22.0527C22.1829 4.32031 22.248 4.38542 22.248 4.51562V13.3926C22.248 13.5228 22.1829 13.5879 22.0527 13.5879H15.2949Z" fill="white"/>
</svg>
